<svg id="Layer_1" data-name="Layer 1" xmlns="http://www.w3.org/2000/svg" viewBox="0 0 983.1148 682.3366"><defs><style>.cls-1{fill:#002e39;}.cls-2{fill:#3e819a;}</style></defs><title>Buildings</title><path class="cls-1" d="M279.475,247.4259l-73.9709,40.5775v228.08q34.5035-3.5615,73.9709-4.44Z" transform="translate(-8.4426 -8.8317)"/><path class="cls-2" d="M305.0673,511.3655c10.3295,0,20.9056.1235,31.6666.4009V275.6083L279.475,247.4259V511.6431Q292.0092,511.3656,305.0673,511.3655Z" transform="translate(-8.4426 -8.8317)"/><path class="cls-1" d="M461.3961,519.8141V9.2634l-.6167-.4317L336.7339,94.7354v417.031Q395.0105,513.2,461.3961,519.8141Z" transform="translate(-8.4426 -8.8317)"/><path class="cls-2" d="M500,524.0076V363.1461l50.26-27.4422v194.748q25.5769,3.5613,52.0479,7.77l.185.0309.1541.0308a.1137.1137,0,0,1,.0926.0307V363.1461L586.0583,354.42V95.938L461.3961,9.2634V519.8141Q480.3593,521.6642,500,524.0076Z" transform="translate(-8.4426 -8.8317)"/><path class="cls-1" d="M602.74,363.1461V538.3145q16.5117,3.099,32.2217,6.1977V101.8889l-48.903,31.9441V354.42Z" transform="translate(-8.4426 -8.8317)"/><path class="cls-2" d="M710.4431,559.7751c.555-85.102-.3392-406.5782-.3392-406.5782l-75.1426-51.308V544.5122Q675.1535,552.3287,710.4431,559.7751Z" transform="translate(-8.4426 -8.8317)"/><path class="cls-1" d="M500,363.1461V524.0076q24.6521,2.8676,50.26,6.4443V335.7039Z" transform="translate(-8.4426 -8.8317)"/><path class="cls-2" d="M710.3505,572.3246q-35.2434-7.4-75.3892-15.2629c-10.4837-2.035-21.2139-4.1317-32.2217-6.1977-.8017-.1541-1.5725-.3083-2.3742-.4624q-22.4318-3.5615-43.8153-6.5985c-2.0967-.3085-4.1934-.6168-6.29-.8942-4.9643-.7093-9.9285-1.3875-14.8-2.0351-3.4842-.4626-6.9376-.8941-10.391-1.3567Q512.35,537.8521,500,536.4028c-1.7575-.2159-3.5459-.4315-5.3035-.6167q-17.02-1.9889-33.3008-3.6075c-1.8191-.185-3.6384-.37-5.4268-.5242q-9.4352-.9251-18.6855-1.7267c-6.1359-.5241-12.1486-1.0484-18.13-1.5108q-22.3854-1.7114-43.3527-2.806c-5.581-.3083-11.1-.555-16.5271-.7709q-11.47-.4623-22.54-.74-16.3264-.4161-31.6666-.4008h-.0307q-13.1355,0-25.5616.3084c-27.0107.5859-51.6162,2.1583-73.9709,4.5326q-10.73,1.11-20.7513,2.4666-5.4576.74-10.73,1.5726c-3.5149.5241-6.9683,1.11-10.36,1.665-11.2543,1.9425-21.8306,4.1318-31.6665,6.4753q-8.88,2.1276-17.02,4.44c-7.2461,2.0658-14.0294,4.2242-20.443,6.5059-3.2066,1.11-6.29,2.2817-9.2811,3.4534-7.4926,2.96-14.3379,6.0436-20.5971,9.1885-2.4976,1.2643-4.9027,2.5593-7.2153,3.8543-2.8984,1.6034-5.6425,3.2686-8.2635,4.9335s-5.0875,3.33-7.4,5.026c-1.85,1.3567-3.6078,2.7134-5.3036,4.07-.6474.5242-1.2641,1.0174-1.85,1.5417-1.85,1.5417-3.546,3.0834-5.18,4.656-.7093.6783-1.3875,1.3565-2.066,2.0658-10.1443,10.3294-15.6636,20.7513-17.5137,30.3407-9.9541,52.02,35.7164,70.3429,35.7654,70.3624a31.8043,31.8043,0,0,1-.5746-6.403c-.1285-21.8573,15.1852-92.9975,216.5078-108.1138.89-.0667,1.76-.1086,2.6491-.1739q13.949-1.0261,27.7226-1.8191c2.7428-.1611,5.4893-.3228,8.2232-.4711q14.75-.8017,29.3564-1.3765c1.697-.0649,3.3845-.11,5.0787-.17q13.3664-.4752,26.6313-.7475c1.9655-.0409,3.9382-.0924,5.9009-.1267q14.8278-.26,29.5641-.2753c.724-.001,1.4542-.02,2.178-.02,2.7078,0,5.3971.03,8.0945.0437,3.3.0149,6.6008.0271,9.8961.06,5.422.0348,10.8441.117,16.266.2051,7.2019.1363,14.39.3331,21.5754.5522q1.8606.0564,3.7212.1193c2.9558.0946,5.9124.18,8.8676.2844,2.2571.0854,4.5075.1977,6.7587.2928q4.1257.168,8.2539.3576c.69.0327,1.3784.0559,2.0694.09q5.6889.2313,11.3778.555c.08.004.16.0091.24.013q3.5029.1824,7.01.3821c1.3569.0762,2.7148.1441,4.0666.2216,3.8234.2159,7.6776.4318,11.5012.6783.4425.028.8881.0672,1.3306.0956q14.3408.92,28.7539,2.0677,4.1007.3207,8.2107.6544,14.7566,1.2079,29.6126,2.61c1.25.1191,2.51.2509,3.7611.3723q14.7874,1.4315,29.7166,3.0659c1.288.1407,2.5723.2744,3.862.4172q15.8652,1.7567,31.9292,3.734c.6943.0851,1.3752.1562,2.07.242,1.9348.24,3.8787.4991,5.8145.7419q7.63.959,15.31,1.9616c1.917.2474,3.8287.4934,5.7628.75,1.176.1568,2.3622.3252,3.54.4826q6.85.9183,13.7493,1.8736c.27.0384.5395.0719.81.1105,3.0217.4317,6.0742.8326,9.1268,1.2641.9272.1318,1.87.2718,2.8.4048,3.2225.4587,6.4691.9331,9.7077,1.4032,1.9507.2836,3.8857.5593,5.8383.8439,1.0787.1571,2.1755.3288,3.2577.4878q7.3314,1.0831,14.7263,2.2053c.1831.0282.3642.0536.5473.0819,3.1143.4625,6.2285.9558,9.3426,1.4184.6841.1044,1.375.2183,2.0591.3235,5.0786.7859,10.2012,1.5959,15.3254,2.4078.4876.0783.9669.15,1.4553.2286.2034.0322.4114.067.615.0994q11.242,1.7867,22.6417,3.655c1.0327.1692,2.0632.3366,3.0977.5068q10.5835,1.7415,21.3161,3.5535c1.485.25,2.9646.4978,4.4538.75q10.115,1.7148,20.3764,3.4929c1.87.3235,3.7307.6423,5.6079.9688,6.3868,1.1111,12.8341,2.2456,19.3037,3.39,2.38.4208,4.7457.8352,7.1377,1.26,5.78,1.0281,11.6224,2.079,17.471,3.1326,3.1491.567,6.2766,1.1257,9.4462,1.7,4.4429.8055,8.9466,1.6313,13.431,2.4509,4.7536.8683,9.4888,1.73,14.29,2.6144.9639.1775,1.9471.3614,2.9129.54,16.6491,3.07,33.5479,6.2206,50.8079,9.4721.185.0309.37.0617.5241.0926.37.0617.7709.1233,1.1409.185C988.5666,642.38,904.2352,612.9948,710.3505,572.3246Z" transform="translate(-8.4426 -8.8317)"/><path class="cls-1" d="M921.8813,630.5243c-4.4844-.82-8.9881-1.6454-13.431-2.4509-3.1719-.5751-6.295-1.1324-9.4462-1.7-5.8486-1.0536-11.6913-2.1045-17.471-3.1326-2.3935-.4257-4.7557-.8391-7.1377-1.26-6.47-1.1444-12.9169-2.2789-19.3037-3.39-1.8784-.3267-3.7363-.6449-5.6079-.9688q-10.2495-1.7738-20.3764-3.4929c-1.49-.2528-2.968-.5-4.4538-.75q-10.7264-1.81-21.3161-3.5535c-1.035-.17-2.0643-.3375-3.0977-.5068q-11.397-1.8682-22.6417-3.655-1.0364-.1645-2.07-.328c-5.1242-.8119-10.2468-1.6219-15.3254-2.4078-4.0015-.6192-7.9747-1.221-11.949-1.8238q-7.391-1.1212-14.7263-2.2053-4.5594-.6732-9.096-1.3317c-3.2386-.47-6.4852-.9445-9.7077-1.4032-4.2641-.6069-8.5-1.1928-12.7371-1.7794q-6.896-.9545-13.7493-1.8736-4.6614-.6251-9.3031-1.2325-7.6818-1.0062-15.31-1.9616-3.9462-.496-7.8845-.9839-16.0629-1.9732-31.9292-3.734c-1.29-.1428-2.5734-.2767-3.862-.4172q-14.9283-1.63-29.7166-3.0659c-1.2516-.1211-2.5107-.2534-3.7611-.3723q-14.8653-1.4148-29.6126-2.61-4.1094-.3363-8.2107-.6544-14.408-1.1238-28.7539-2.0677c-5.6395-.3615-11.2692-.6824-16.8984-.9955q-3.5049-.1951-7.01-.3821-6.8465-.3565-13.6868-.6575-4.1268-.1859-8.2539-.3576-7.8133-.3178-15.6263-.5772-1.86-.06-3.7212-.1193-18.8979-.5751-37.8414-.7573c-3.2953-.0326-6.5965-.0448-9.8961-.06q-5.133-.0228-10.2725-.0233-14.7391.0174-29.5641.2753c-1.9635.0346-3.9347.0856-5.9009.1267q-13.2677.2763-26.6313.7475c-1.6949.06-3.3812.1046-5.0787.17q-14.6.56-29.3564,1.3765-4.1028.2234-8.2232.4711-13.7885.8108-27.7226,1.8191c-.8862.0653-1.7617.1165-2.6491.1831C60.2658,591.7645,44.9284,662.8871,45.0526,684.7551a31.8043,31.8043,0,0,0,.5746,6.403l.0022.01c172.7942-179.7318,903.747-55.1005,944.263-48.0087q-25.8787-4.8792-50.8079-9.4813c-.9658-.1782-1.949-.3621-2.9129-.54C931.366,632.2533,926.6389,631.394,921.8813,630.5243Z" transform="translate(-8.4426 -8.8317)"/></svg>